<?xml version="1.0" encoding="utf-8"?>
<!-- Generator: Adobe Illustrator 23.0.5, SVG Export Plug-In . SVG Version: 6.00 Build 0)  -->
<svg version="1.1" id="Warstwa_1" xmlns="http://www.w3.org/2000/svg" xmlns:xlink="http://www.w3.org/1999/xlink" x="0px" y="0px"
	 viewBox="0 0 261 112.13" style="enable-background:new 0 0 261 112.13;" xml:space="preserve">
<style type="text/css">
	.st0{fill:#FFFFFF;}
	.st1{fill:#101219;}
	.st2{fill:#868C9B;}
</style>
<g>
	<g>
		<path class="st0" d="M2.86,2h15.19c0.48,0,0.86,0.39,0.86,0.86v70.47c0,0.48-0.39,0.86-0.86,0.86H2.86C2.39,74.2,2,73.81,2,73.33
			V2.86C2,2.39,2.39,2,2.86,2z"/>
		<path class="st0" d="M149.22,73.33V2.86c0-0.48,0.39-0.86,0.86-0.86h15.19c0.48,0,0.86,0.39,0.86,0.86v70.47
			c0,0.48-0.39,0.86-0.86,0.86h-15.19C149.61,74.2,149.22,73.81,149.22,73.33z M202.96,3.27l-18.23,34.25
			c-0.13,0.25-0.14,0.55,0,0.81l18.1,34.6c0.3,0.58-0.12,1.27-0.77,1.27h-16.28c-0.33,0-0.62-0.18-0.77-0.47l-17.94-35.4
			c-0.13-0.25-0.12-0.54,0-0.79l18.09-35.07C185.31,2.18,185.6,2,185.93,2h16.27C202.85,2,203.27,2.69,202.96,3.27z"/>
		<path class="st0" d="M241.29,61.04V45.59c0-1.22-0.29-2.04-0.88-2.46c-0.59-0.42-1.67-0.63-3.24-0.63h-11.91
			c-10.1,0-15.15-3.81-15.15-11.44V13.33c0-7.55,5.3-11.33,15.89-11.33h16.18c10.59,0,15.89,3.78,15.89,11.33v9.2
			c0,0.48-0.39,0.86-0.86,0.86h-15.33c-0.48,0-0.86-0.39-0.86-0.86v-7.37c0-1.22-0.29-2.04-0.88-2.46
			c-0.59-0.42-1.67-0.63-3.24-0.63h-5.59c-1.67,0-2.79,0.21-3.38,0.63c-0.59,0.42-0.88,1.24-0.88,2.46v14.53
			c0,1.22,0.29,2.04,0.88,2.46c0.59,0.42,1.71,0.63,3.38,0.63h11.62c10.29,0,15.44,3.74,15.44,11.21v18.88
			c0,7.55-5.35,11.33-16.03,11.33h-15.88c-10.69,0-16.03-3.78-16.03-11.33v-9.09c0-0.48,0.39-0.86,0.86-0.86h15.19
			c0.48,0,0.86,0.39,0.86,0.86v7.26c0,1.22,0.29,2.04,0.88,2.46c0.59,0.42,1.71,0.63,3.38,0.63h5.59c1.57,0,2.65-0.21,3.24-0.63
			C241,63.08,241.29,62.26,241.29,61.04z"/>
		<g>
			<path class="st0" d="M117.31,41.14v8.92c0,0.23,0.09,0.45,0.25,0.61l15.19,15.19c0.54,0.54,1.48,0.16,1.48-0.61v-8.92
				c0-0.23-0.09-0.45-0.25-0.61l-15.19-15.19C118.24,39.99,117.31,40.37,117.31,41.14z"/>
			<path class="st0" d="M134.22,42.58V2.86c0-0.48-0.39-0.86-0.86-0.86h-15.19c-0.48,0-0.86,0.39-0.86,0.86v24.53
				c0,0.23,0.09,0.45,0.25,0.61l15.19,15.19C133.29,43.73,134.22,43.35,134.22,42.58z"/>
			<path class="st0" d="M117.31,63.81v10.47c0,0.23,0.09,0.45,0.25,0.61l7.59,7.59c0.34,0.34,0.88,0.34,1.22,0l5.23-5.23
				c0.34-0.34,0.34-0.88,0-1.22L118.78,63.2C118.24,62.66,117.31,63.04,117.31,63.81z"/>
		</g>
		<path class="st0" d="M102.15,3.9V2.86c0-0.48-0.39-0.86-0.86-0.86H87.14h-1.93c-0.32,0-0.62,0.18-0.77,0.46L69.02,31.94
			c-0.32,0.62-1.21,0.62-1.53,0L52,2.46C51.85,2.18,51.56,2,51.24,2h-2.16H34.11h-0.19v71.33c0,0.48,0.39,0.86,0.86,0.86h13.27
			c0.48,0,0.86-0.39,0.86-0.86V35.1c0-0.91,1.22-1.2,1.64-0.39l8.41,16.6l-0.01,0.02l4.77,9.44h0.03h8.7h0.05L83.99,38.1h0.04
			l1.63-3.22c0.41-0.81,1.64-0.52,1.64,0.39v38.06c0,0.48,0.39,0.86,0.86,0.86h13.13c0.48,0,0.86-0.39,0.86-0.86L102.15,3.9
			L102.15,3.9z"/>
	</g>
</g>
<g>
	<g>
		<path class="st0" d="M9.69,95.2v2.71H7.45v11.23H4.3V97.92H2.09V95.2H9.69z"/>
		<path class="st0" d="M23.51,95.2h2.66c1.76,0,2.65,0.9,2.65,2.69v8.56c0,1.8-0.88,2.69-2.65,2.69h-2.66
			c-1.76,0-2.65-0.9-2.65-2.69V97.9C20.86,96.1,21.75,95.2,23.51,95.2z M25.67,105.96V98.4c0-0.32-0.15-0.48-0.45-0.48h-0.76
			c-0.3,0-0.45,0.16-0.45,0.48v7.56c0,0.32,0.15,0.48,0.45,0.48h0.76C25.52,106.43,25.67,106.27,25.67,105.96z"/>
		<path class="st0" d="M43.44,109.15h-2.81V95.2h3.44l1.87,7.45l1.87-7.45h3.44v13.95h-2.79v-8.86l-1.44,5.84h-2.16l-1.42-5.8
			V109.15z"/>
		<path class="st0" d="M69,109.15l-0.36-2.09h-2.77l-0.38,2.09h-3.1l2.97-13.95h3.83l2.97,13.95H69z M66.35,104.37h1.8l-0.88-5.02
			L66.35,104.37z"/>
		<path class="st0" d="M87.73,105.96v-1.98c0-0.32-0.15-0.48-0.45-0.48h-1.73c-0.89,0-1.52-0.23-1.88-0.71s-0.55-1.15-0.55-2.03
			V97.9c0-1.8,0.88-2.69,2.63-2.69h2.47c1.75,0,2.63,0.9,2.63,2.69v1.67H87.7V98.4c0-0.32-0.15-0.48-0.45-0.48h-0.52
			c-0.3,0-0.45,0.16-0.45,0.48v2.06c0,0.32,0.15,0.48,0.45,0.48h1.69c0.89,0,1.52,0.22,1.9,0.67c0.38,0.45,0.57,1.11,0.57,1.98v2.87
			c0,1.8-0.88,2.69-2.63,2.69h-2.45c-1.76,0-2.65-0.9-2.65-2.69v-1.67h3.15v1.17c0,0.32,0.15,0.48,0.45,0.48h0.52
			C87.58,106.43,87.73,106.27,87.73,105.96z"/>
		<path class="st0" d="M109.84,95.2v2.71l-4.34,8.52h4.21v2.72h-7.51v-2.72l4.34-8.52h-4.1V95.2H109.84z"/>
		<path class="st0" d="M143.12,99.98h-3.15v-1.8c0-0.32-0.15-0.48-0.45-0.48h-0.65c-0.3,0-0.45,0.16-0.45,0.48v7.99
			c0,0.32,0.15,0.48,0.45,0.48h0.65c0.3,0,0.45-0.16,0.45-0.48v-2.32h-0.9v-2.41h4.05v5.02c0,1.8-0.88,2.69-2.65,2.69h-2.56
			c-1.76,0-2.65-0.9-2.65-2.69V97.9c0-1.8,0.88-2.69,2.65-2.69h2.56c1.76,0,2.65,0.9,2.65,2.69V99.98z"/>
		<path class="st0" d="M157.95,104.2v4.95h-3.15V95.2h5.35c1.76,0,2.65,0.9,2.65,2.69v3.61c0,1.38-0.52,2.22-1.55,2.54l2.12,5.1
			h-3.38l-1.84-4.95H157.95z M159.19,97.92h-1.24v3.69h1.24c0.3,0,0.45-0.16,0.45-0.48V98.4C159.64,98.08,159.49,97.92,159.19,97.92
			z"/>
		<path class="st0" d="M177.07,95.2h2.66c1.76,0,2.65,0.9,2.65,2.69v8.56c0,1.8-0.88,2.69-2.65,2.69h-2.66
			c-1.76,0-2.65-0.9-2.65-2.69V97.9C174.42,96.1,175.3,95.2,177.07,95.2z M179.23,105.96V98.4c0-0.32-0.15-0.48-0.45-0.48h-0.76
			c-0.3,0-0.45,0.16-0.45,0.48v7.56c0,0.32,0.15,0.48,0.45,0.48h0.76C179.08,106.43,179.23,106.27,179.23,105.96z"/>
		<path class="st0" d="M198.61,105.96v-1.98c0-0.32-0.15-0.48-0.45-0.48h-1.73c-0.89,0-1.51-0.23-1.88-0.71s-0.55-1.15-0.55-2.03
			V97.9c0-1.8,0.88-2.69,2.63-2.69h2.47c1.75,0,2.63,0.9,2.63,2.69v1.67h-3.15V98.4c0-0.32-0.15-0.48-0.45-0.48h-0.52
			c-0.3,0-0.45,0.16-0.45,0.48v2.06c0,0.32,0.15,0.48,0.45,0.48h1.69c0.89,0,1.52,0.22,1.9,0.67c0.38,0.45,0.57,1.11,0.57,1.98v2.87
			c0,1.8-0.88,2.69-2.63,2.69h-2.45c-1.76,0-2.65-0.9-2.65-2.69v-1.67h3.15v1.17c0,0.32,0.15,0.48,0.45,0.48h0.52
			C198.46,106.43,198.61,106.27,198.61,105.96z"/>
		<path class="st0" d="M220.72,95.2v2.71l-4.34,8.52h4.21v2.72h-7.51v-2.72l4.34-8.52h-4.1V95.2H220.72z"/>
		<path class="st0" d="M235.37,106.43h3.94v2.72h-7.09V95.2h6.93v2.71h-3.78v2.85h3.26v2.72h-3.26V106.43z"/>
		<path class="st0" d="M250.72,109.15V95.2h3.15v13.95H250.72z M257.17,102.02l2.27,7.13h-3.38l-2.16-7.13l2.14-6.82h3.38
			L257.17,102.02z"/>
	</g>
</g>
</svg>
