<?xml version="1.0" encoding="utf-8"?>
<!-- Generator: Adobe Illustrator 23.0.5, SVG Export Plug-In . SVG Version: 6.00 Build 0)  -->
<svg version="1.1" baseProfile="tiny" id="Warstwa_1"
	 xmlns="http://www.w3.org/2000/svg" xmlns:xlink="http://www.w3.org/1999/xlink" x="0px" y="0px" viewBox="0 0 271.84 80.44"
	 xml:space="preserve">
<g>
	<path fill-rule="evenodd" fill="#070808" d="M128.27,2.69c5.54,5.88-21.42,16.06-24.82,17.74c-0.65,0.32-15.36,6.86-15.13,8.04
		c-0.51-2.53,8.2-6.32,9.71-7.07c8.23-4.08,17.25-7.07,24.95-12.16c1.23-0.81,5.68-3.78,4.05-5.45c-1.94-1.99-9.74,0.39-11.9,0.89
		c-10.32,2.4-20.04,6.37-29.62,10.8c-17.17,7.95-34.15,16.35-50.5,25.89c0.45-0.26,0.94-0.51,1.37-0.81
		c-8.66,6.18-17.88,11.24-25.86,18.42C6.91,62.24,1.14,67.18,2,72.7c0.98,6.3,9.84,4.72,14.12,3.67c3.42-0.84,6.86-2.05,9.95-3.75
		c0.88-0.48,2.19-1.08,2.81-1.92c1.4-1.91,0.46-6.25,0.46-8.53c-1.51,1.71-5.43,7.51-7.79,7.58c-0.11,0-1.75-1.29-1.75-1.33
		c0-0.1,1.84-1.38,1.94-1.45c1.3-0.97,2.57-2,3.76-3.11c2.99-2.78,5.6-6.04,6.87-9.96c1.19-3.66,2.51-6.4,4.45-9.74
		c0.92-1.6,4.46-4.69,3.84-0.95c-0.55,3.3-3.98,7.19-5.51,10.13c-1.58,3.04-5.33,9-4.12,12.65c1.12,3.37,2.19-0.86,3.65-1.68
		c1.23-0.69,1.66-0.42,0.99,1.19c-0.64,1.54-2.62,2.1-3.44,3.5c-0.73,1.24-0.38,1.87-0.19,3.15c0.26,1.7,1,2.9-0.98,1.51
		c-0.79-0.55-0.95-1.72-1.95-1.63c-0.57,0.05-1.79,1.9-2.24,2.24c-3.42,2.6-8.85,4.01-13.02,4.69C8.61,79.8,2.99,79.09,0.57,73.74
		c-2.95-6.52,6.33-13.98,10.67-17.7c8.47-7.27,17.55-13.39,27.38-18.66c12.27-6.58,24.62-12.8,37.25-18.65
		c7.36-3.41,14.75-6.75,22.24-9.86c4.92-2.05,9.76-3.87,14.91-5.22C116.37,2.76,125.31-0.46,128.27,2.69z"/>
	<path fill-rule="evenodd" fill="#070808" d="M227.95,3.97c1.92,0-2.79,2.47-3.4,2.82c-3.43,1.97-6.86,3.95-10.38,5.74
		c-8.43,4.28-16.74,8.77-25.23,12.94c-7.82,3.84-15.74,7.57-23.05,12.33c-3.49,2.28-6.79,4.88-10.33,7.09
		c-0.96,0.6-3.31,2.46-3.09,0.66c0.38-3.15,8.31-6.91,10.57-8.28c5.27-3.18,10.72-6.05,16.21-8.83c5.47-2.77,11.01-5.39,16.48-8.18
		C206.43,14.8,217.06,9.05,227.95,3.97z"/>
	<path fill-rule="evenodd" fill="#070808" d="M124.03,30.81c0.09,2.14-0.32,2.07-1.81,3.41c-1.02,0.91-1.94,1.94-2.83,2.97
		c-2.52,2.87-4.82,5.95-6.99,9.09c-0.57,0.83-4.35,5.7-2.82,6.2c1.22,0.4,4.82-2.38,5.73-2.91c4.7-2.77,9.43-6.23,14.65-7.95
		c0.58-0.19,4.05-1.3,4.24,0.11c0.2,1.48-6.06,3.64-6.97,4.02c-2.63,1.1-5.39,1.99-7.91,3.32c-3.45,1.82-8.78,4.72-10.76,8.17
		c-2,3.49,1.38,4.9,4.51,4.55c1.55-0.17,6.58-2.74,7.89-1.78c1.7,1.24-2.68,2.44-3.77,2.72c-2.47,0.64-5.33,1.03-7.87,0.51
		c-1.9-0.39-3.57-1.23-3.79-3.33c-0.27-2.66,2.5-3.1,1.75-5.42c-0.09-0.28-1.12-0.34-1.2-0.91c-0.19-1.41,0.66-1.53,1.27-2.52
		c0.34-0.55,0.59-1.22,0.92-1.8c1.51-2.59,3.48-4.99,5.32-7.35c2.05-2.64,4.16-5.25,6.4-7.74C121,33.06,122.77,30.68,124.03,30.81z"
		/>
	<path fill-rule="evenodd" fill="#070808" d="M175.37,41.75c2.19,0.8,0.02,3.32-0.63,4.77c-0.95,2.1-1.81,4.25-2.71,6.38
		c-1.27,3.02-3.49,5.98-4.37,8.97c-0.27,0.91-0.93,8.88-2.25,8.56c-0.95-0.23-0.32-3.84-0.23-4.39c0.78-4.84,2.78-9.6,4.72-14.07
		C171.27,48.83,172.75,44.12,175.37,41.75z"/>
	<path fill-rule="evenodd" fill="#070808" d="M50.72,42.64c4.63,0.21-0.15,2.16-1.45,3.41c-1.92,1.86-3.09,4.94-3.99,7.4
		c-0.91,2.48-1.98,5.41-2.07,8.05c-0.03,0.8,0.9,3.05,0.49,3.79c-0.76,1.36-1.67,0.78-2.31,0.11c-1.03-1.08-1.03-4.61-1.03-5.96
		c-0.01-0.51,0-1.03,0.04-1.54c-0.1-0.74,0.3-0.99,1.2-0.73c0.37-0.05,0.75-0.09,1.12-0.14c0.19-0.84,0.37-1.68,0.56-2.52
		C44.45,50.62,46.89,44.56,50.72,42.64z"/>
	<path fill-rule="evenodd" fill="#070808" d="M89.7,42.97c6.24-0.1,0.57,5.53-1.37,7.38c-1.61,1.53-3.46,2.88-4.99,4.48
		c-1.36,1.42-3.19,7.53-5.7,6.16c-2.05-1.11,3.35-7.02,4.56-8.22c1.68-1.65,3.81-2.55,5.56-4.09c0.94-0.83,2.98-2.48,1.53-3.49
		c-1.08-0.75-3.22,0.03-4.24,0.49c-1.26,0.56-2.28,1.5-3.47,2.15c-0.55,0.3-1.31,0.85-1.96,0.86c-1.75,0.01-0.49,0.15-1.35-0.95
		c-0.5-0.64,0.59-1.05-0.74-1.9c-0.63-0.4-1.56-0.28-2.24-0.21c-1.45,0.13-2.93,0.93-4.16,1.66c-0.76,0.45-2.81,1.44-2.43,2.56
		c0.3,0.88,3.36,1.49,4.22,1.87c2.27,1,4.71,2.28,3.4,4.97c-1.14,2.34-4.14,4.19-6.3,5.43c-1.26,0.72-5.61,3.23-6.4,1.09
		c-0.73-2.01,3.44-1.69,5.01-2.56c1.29-0.71,5.52-3.23,5.66-5.04c0.16-2.07-4.16-3.46-5.72-4.23c-0.83-0.41-2.85-0.86-2.77-1.92
		c0.06-0.84,2.42-2.16,3-2.57c2.48-1.71,5.79-3.75,8.91-3.89c1.7-0.08,1.71,0.1,2.32,1.2c0.5,0.91-0.15,2.49,2.09,1.56
		c0.16-0.06,0.04-0.99,0.42-1.19c0.49-0.26,1.05-0.4,1.55-0.63C85.95,43.11,87.68,43.03,89.7,42.97z"/>
	<path fill-rule="evenodd" fill="#070808" d="M108.98,42.92c-0.98-5.25-14.31,5.74-15.7,7.02c-1.95,1.79-4.79,4.32-5.28,7.09
		c-0.63,3.53,2.79,3.48,5.31,2.61c0.56-0.19,3.16-1.08,3.13-1.85c-0.06-1.41-3.56,0.04-4.36,0.16c-4.68,0.72-0.96-3.44,0.76-4.78
		C97.5,49.54,105.72,48.08,108.98,42.92z M104.6,44.4c-1.13,0.84-2.57,2.27-3.96,2.6C100.21,46.06,104.01,43.92,104.6,44.4z"/>
	<path fill-rule="evenodd" fill="#070808" d="M205.23,45.51c2.27,0.71-1.18,3.67-1.84,4.85c-1.37,2.46-2.56,5.08-3.57,7.71
		c-0.34,0.88-1.91,3.86-0.7,4.45c1.06,0.51,2.75-2.16,3.18-2.73c0.87-1.15,5.35-8.92,7.49-7.13c1.07,0.89-2.71,6.78-2.95,7.93
		c-0.84,4.04,1.96,0.74,3.12-0.69c1.85-2.27,6.06-11.19,9.5-11.18c3.43,0.01,0.12,6.66-0.44,8.18c-1.65,4.52-3.29,8.81-4.12,13.56
		c-0.16,0.91-0.3,5.32-1.68,4.49c-0.45-0.27-0.4-1.67-0.42-2.05c-0.13-2.1,0.45-4.37,0.93-6.39c0.55-2.35,1.24-4.69,2.1-6.95
		c0.54-1.41,1.88-2.94,2.3-4.24c1.26-3.85-1.73-1.64-2.91-0.3c-1.86,2.13-3.27,4.65-4.97,6.91c-0.77,1.03-2.56,3.91-4.19,3.76
		c-3.19-0.3-0.17-4.92-1.96-5.75c-1.62,0.81-2.55,4.13-4.32,5.29c-2.61,1.7-3.68-0.27-3.04-2.81c0.77-3.05,2.28-6.08,3.58-8.93
		C201.48,50.97,202.37,46.68,205.23,45.51z"/>
	<path fill-rule="evenodd" fill="#070808" d="M266.51,45.72c9.62-0.06-1.39,8.77-4.13,10.85c-2.14,1.63-4.79,2.97-6.75,4.8
		c-1.09,1.02-3.8,4.38-1.42,5.3c2.02,0.78,3.92-2.34,5.92-1.67c0.14,3.37-8.82,5.22-9.29,1.07c-0.3-2.65,3.08-4.91,4.85-6.37
		c1.99-1.64,3.86-3.43,5.8-5.14c2-1.76,6.03-3.83,5.79-6.53c-2.42,0.16-4.85,1.36-7.07,2.24c-1.26,0.5-4.09,2.2-5.47,1.69
		C254.38,48.64,264.24,46.44,266.51,45.72z"/>
	<path fill-rule="evenodd" fill="#070808" d="M250.87,46.99c1.03,0.19,3.52,0.39,2.25,2.2c-1.02,1.46-1.3,0.06-2.61-0.01
		c-2.55-0.14-5.29,1.75-7.3,3.13c-1.57,1.08-5.19,3.16-2.09,3.62c2.1,0.31,4.51-0.22,6.66-0.07c2.33,0.16,7.07,0.43,5.17,3.71
		c-1.48,2.56-5.55,4.75-8.31,5.46c-1.04,0.27-2.53,0.63-3.38-0.27c-0.33-0.35-0.57-1.14-0.42-1.61c0.47-1.48,1.07-0.25,2.39-0.17
		c2.03,0.13,4.46-1.18,5.91-2.55c0.96-0.91,2.42-1.43,0.72-2.44c-0.61-0.36-2.25-0.06-2.94-0.06c-1.93,0.03-10.02,1.31-10.29-1.94
		c-0.1-1.18,5.01-4.1,6.11-4.88C245.25,49.34,247.89,47.8,250.87,46.99z"/>
	<path fill-rule="evenodd" fill="#070808" d="M188.27,46.36c-3.38,0.89-7.54,3.1-9.32,6.24c-0.54,0.96-0.37,2.78-0.81,3.84
		c-0.48,1.13-1.13,1.25-1.68,2.22c-0.58,1.01-0.89,2.58-1.09,3.72c-1.19,6.81,6.71,6.88,10.66,3.97
		C191.1,62.61,201.18,46.25,188.27,46.36z M185.74,63.67c-1.43,0.96-1.83,1.58-3.71,1.82c-0.9,0.11-2.26,0.44-3.1-0.07
		c-0.96-0.6-1.05-1.4-1.19-2.46c-0.08-0.6-0.14-2.58,0.22-2.93c0.5-0.5,1.85,0.76,2.59,0.14c-0.21-0.72-0.42-1.45-0.63-2.17
		c0.96-0.48,2.5,1.74,2.02-0.86c-0.39-2.12-2.6-1.47-1.19-4.06c1.39-2.56,6.08-5.62,9.05-5.22c3.97,0.53,3.82,5.86,2.55,8.56
		C191,59.35,188.4,61.88,185.74,63.67z"/>
	<path fill-rule="evenodd" fill="#070808" d="M59.17,48.11c10.02,1.45,3.04,13.14-2.25,16.16c-2.82,1.61-6.1,1.25-7.5-1.92
		c-0.62-1.4-1.32-5.65,0.69-6.43c1.86-0.72,1.04,1.12,0.74,2.01c-0.66,1.95-0.71,3.92,1.81,4.72c3.55,1.12,7.75-3.52,9.36-6.16
		c1.16-1.91,1.46-4.22-0.4-5.86c-0.84-0.75-1.97-1.16-3.1-0.97c-1.84,0.31-1.68,1.57-2.79,2.68c-1.48,1.49-1.78,0.06-1.26-1.78
		C55.05,48.49,57.16,48.42,59.17,48.11z"/>
	<path fill-rule="evenodd" fill="#070808" d="M232.72,48.46c1.16-0.05,2.87,0.37,3.48,1.49c0.88,1.62,0.14,1.63-0.74,1.57
		c-1.51-0.11-2.04-1.27-3.92-0.69c-3.43,1.06-6.1,5.1-7.54,8.16c-0.74,1.56-1.44,3.38-1.41,5.13c0.05,2.87,1,2.16,3.27,1.56
		c3.35-0.89,3.15-3.44,5.03-5.93c1.13,0.24,1.73-0.22,1.82-1.4c0.51,0.02,1.03,0.05,1.54,0.07c0.71,0.76,0.14,1.77-0.21,2.5
		c-0.88,1.84-3.54,2.96-4,5c-0.24,1.09,2.27,5.87-1.03,4.43c-1.16-0.51-0.62-2.84-1.49-3.31c-0.48-0.26-2.41,1.1-2.96,1.21
		c-2.26,0.47-3.55-0.37-3.86-2.58C219.83,59.3,226.28,49.75,232.72,48.46z"/>
	<path fill-rule="evenodd" fill="#070808" d="M108.42,49.23"/>
	<path fill-rule="evenodd" fill="#070808" d="M259.71,56.52C259.34,57.01,259.91,56.82,259.71,56.52z"/>
	<path fill-rule="evenodd" fill="#070808" d="M220.52,62.97c0,0.4,0,0.79,0,1.19C220.52,63.77,220.52,63.37,220.52,62.97z"/>
</g>
</svg>
